<svg xmlns="http://www.w3.org/2000/svg" width="349.078" height="349.078" fill="#25ccf7"><path d="M150.299 26.634v58.25c0 7.9-6.404 14.301-14.304 14.301-28.186 0-43.518 28.909-45.643 85.966h45.643c7.9 0 14.304 6.407 14.304 14.304v122.992c0 7.896-6.404 14.298-14.304 14.298H14.301C6.398 336.745 0 330.338 0 322.447V199.455c0-27.352 2.754-52.452 8.183-74.611 5.568-22.721 14.115-42.587 25.396-59.048 11.608-16.917 26.128-30.192 43.16-39.44C93.886 17.052 113.826 12.333 136 12.333c7.895 0 14.299 6.401 14.299 14.301zm184.474 72.552c7.896 0 14.305-6.407 14.305-14.301v-58.25c0-7.9-6.408-14.301-14.305-14.301-22.165 0-42.108 4.72-59.249 14.023-17.035 9.248-31.563 22.523-43.173 39.44-11.277 16.461-19.824 36.328-25.393 59.054-5.426 22.166-8.18 47.266-8.18 74.605v122.992c0 7.896 6.406 14.298 14.304 14.298h121.69c7.896 0 14.299-6.407 14.299-14.298V199.455c0-7.896-6.402-14.304-14.299-14.304H289.78c2.093-57.056 17.201-85.965 44.993-85.965z"/></svg>