<?xml version="1.0" encoding="UTF-8" standalone="no"?><!DOCTYPE svg PUBLIC "-//W3C//DTD SVG 1.1//EN" "http://www.w3.org/Graphics/SVG/1.1/DTD/svg11.dtd"><svg width="100%" height="100%" viewBox="0 0 31 21" version="1.1" xmlns="http://www.w3.org/2000/svg" xmlns:xlink="http://www.w3.org/1999/xlink" xml:space="preserve" xmlns:serif="http://www.serif.com/" style="fill-rule:evenodd;clip-rule:evenodd;stroke-linejoin:round;stroke-miterlimit:2;"><path d="M30.614,10.558l-1.44,1.39l-10.872,-10.51l1.39,-1.438l10.922,10.558Z" style="fill:#fff;"/><path d="M29.521,11.612l-9.45,9.127l-1.39,-1.439l7.961,-7.688l2.879,0Z" style="fill:#fff;"/><path d="M30.614,10.558l-0.768,0.741l0,-1.484l0.768,0.743Z" style="fill:#fff;"/><path d="M29.636,9.612l-0.923,0l0.462,-0.446l0.461,0.446Z" style="fill:#fff;"/><path d="M28.713,9.612l-2.071,2l-26.642,0l0,-2l28.713,0Z" style="fill:#fff;"/><path d="M29.846,9.815l0,1.484l-0.325,0.313l-2.879,0l2.071,-2l0.923,0l0.21,0.203Z" style="fill:#fff;"/></svg>